<?xml version="1.0" encoding="UTF-8"?>
<svg width="512" height="512" viewBox="0 0 512 512" fill="none" xmlns="http://www.w3.org/2000/svg">
  <rect width="512" height="512" rx="100" fill="#1a1a1a"/>
  <path d="M320 352c-17.673 0-32-14.327-32-32 0-17.673 14.327-32 32-32h48c8.837 0 16-7.163 16-16v-32c0-8.837-7.163-16-16-16h-48c-17.673 0-32-14.327-32-32s14.327-32 32-32h48c44.183 0 80 35.817 80 80v32c0 44.183-35.817 80-80 80h-48zM192 160c17.673 0 32 14.327 32 32 0 17.673-14.327 32-32 32h-48c-8.837 0-16 7.163-16 16v32c0 8.837 7.163 16 16 16h48c17.673 0 32 14.327 32 32s-14.327 32-32 32h-48c-44.183 0-80-35.817-80-80v-32c0-44.183 35.817-80 80-80h48z" fill="#ffffff"/>
</svg> 