<?xml version="1.0" encoding="UTF-8"?>
<svg width="32" height="32" viewBox="0 0 32 32" fill="none" xmlns="http://www.w3.org/2000/svg">
  <rect width="32" height="32" rx="8" fill="#1a1a1a"/>
  <path d="M20 22c-1.105 0-2-0.895-2-2s0.895-2 2-2h3c0.552 0 1-0.448 1-1v-2c0-0.552-0.448-1-1-1h-3c-1.105 0-2-0.895-2-2s0.895-2 2-2h3c2.761 0 5 2.239 5 5v2c0 2.761-2.239 5-5 5h-3zM12 10c1.105 0 2 0.895 2 2s-0.895 2-2 2h-3c-0.552 0-1 0.448-1 1v2c0 0.552 0.448 1 1 1h3c1.105 0 2 0.895 2 2s-0.895 2-2 2h-3c-2.761 0-5-2.239-5-5v-2c0-2.761 2.239-5 5-5h3z" fill="#ffffff"/>
</svg> 